<svg xmlns="http://www.w3.org/2000/svg" width="100%" viewBox="0 0 1200 400" height="150" xmlns:v="https://vecta.io/nano"><path fill="url(#A)" d="M852 401H1V1h1200v400H852M211.131 218.256v-79.253l-12.308 1.114c-31.226 3.177-61.918 9.047-92.06 17.879-4.558 1.335-5.777 3.501-5.755 8.071l.133 111.956c.012 6.922-1.717 13.169-6.002 18.633-11.834 15.091-27.514 20.91-46.269 18.733-4.542-.527-8.959-2.128-13.875-3.344l.002 7.759c.149 27.724 25.148 42.15 49.14 28.252l95.87-55.818c1.204-.702 2.304-1.582 3.427-2.361-5.173-1.366-10.148-2.198-14.756-3.981-18.425-7.129-24.745-26.343-14.379-43.004 9.665-15.534 32.698-24.189 51.486-19.352l5.05 1.248.294-6.531M39.036 47.705c-1.346 6.278-3.831 12.551-3.861 18.836l-.167 184.955c0 1.746.15 3.491.208 4.758 7.563-2.285 14.687-5.423 22.095-6.401 7.562-.998 15.403.126 23.823.338l.001-6.283.193-140.966c-.005-4.317 1.155-6.758 5.418-8.027l52.064-15.811c3.425-1.033 6.949-1.735 11.214-2.782-1.318-1.116-1.844-1.712-2.496-2.092L82.27 36.323c-15.552-8.776-32.59-4.23-43.235 11.382m260.286 175.097c1.561-.958 3.191-1.82 4.671-2.891 9.78-7.075 14.992-17.137 14.314-28.731-.71-12.136-7.075-21.883-18.156-28.21l-63.092-36.627c-1.382-.802-2.858-1.442-5.58-2.803v138.744l67.843-39.484m91.298 25.541c-16.268-.757-24.928-10.103-28.271-25.815l-17.088 4.738c-2.943.732-4.092 2.453-2.992 5.044 2.645 6.229 4.587 13.108 8.615 18.337 16.042 20.825 53.021 24.784 73.709 8.5 14.959-11.774 19.433-32.115 10.333-47.966-6.222-10.838-16.305-16.357-28.055-19.156-7.772-1.852-15.684-3.132-23.431-5.076-6.835-1.715-12.284-5.363-13.509-13.011-1.24-7.74 2.029-14.218 9.076-18.505 13.679-8.32 32.71-1.488 37.948 13.614.308.888.722 1.739 1.245 2.986 5.617-1.721 10.959-3.497 16.385-4.965 3.084-.834 3.82-2.581 2.471-5.135-2.778-5.259-4.952-11.137-8.822-15.466-18.932-21.181-57.274-18.904-74.087 4.011-11.262 15.349-9.467 35.745 4.367 48.488 5.917 5.45 13.141 8.285 20.885 10.111 9.053 2.135 18.241 3.953 27.003 6.975 6.61 2.28 10.217 7.871 10.022 15.207-.2 7.553-4.335 12.662-11.172 14.99-4.306 1.466-9.108 1.477-14.632 2.095m71.02-71.338l-4.519.303V302.08c5.923 0 11.404-.161 16.87.059 3.354.135 4.279-1.184 4.237-4.364l-.05-32.497v-6.997c1.597 1.039 2.309 1.403 2.905 1.905 14.743 12.422 38.923 11.736 52.56-1.752 15.252-15.085 17.319-33.539 12.335-53.229-6.803-26.878-31.615-35.364-53.414-28.08-5.134 1.715-9.572 5.515-14.71 8.583l-.883-8.704h-15.331m477.714 6.825c-19.603 15.336-21.295 41.768-12.66 59.748 9.336 19.441 30.04 28.914 52.369 24.321 14.478-2.978 27.241-14.776 29.51-27.686l-17.165-5.37c-8.474 13.895-19.638 18.423-32.378 13.494-9.601-3.715-15.928-12.779-14.337-21.05h5.852l54.447-.017c2.277-.003 4.98.472 5.103-3.092.564-16.371-2.921-31.073-16.813-41.662-12.387-9.441-37.827-11.733-53.928 1.314m171.387 23.118c-8.197-28.995-40.094-41.783-65.111-26.121-19.977 12.506-26.208 35.327-19.145 57.453 6.642 20.808 26.769 32.923 49.413 30.52 16.929-1.797 31.376-13.477 34.657-28.198-.813-.417-1.637-.997-2.553-1.282l-14.587-4.393c-9.306 14.078-20.133 18.365-32.807 13.247-9.442-3.813-15.445-12.523-14.015-20.888h5.35l54.992.063c3.892.032 5.573-1.23 5.185-5.166l-1.379-15.236m-525.323 56.193c7.494 4.012 15.484 6.003 23.989 5.784 18.677-.481 33.369-8.141 41.54-25.283 8.456-17.739 7.367-35.504-4.608-51.384-11.56-15.33-28.031-19.86-46.312-16.713-20.872 3.593-33.81 17.314-37.581 38.108-3.507 19.336 5.263 38.64 22.972 49.487m248.736-132.087l-2.999-.017c-19.796.002-31.988 12.256-32.022 32.182-.005 3.166-.162 6.341.038 9.494.203 3.205-.9 4.543-4.242 4.335-3.765-.234-7.556-.054-11.843-.054v7.994c0 11.012.004 11.228 10.909 11.019 4.373-.084 5.245 1.54 5.211 5.495l-.073 57.481v7.656c5.76 0 11.056-.246 16.317.078 4.23.26 5.389-1.331 5.353-5.411l-.059-58.981c.003-1.925.216-3.849.359-6.224 5.972 0 11.444.133 16.901-.097 1.314-.055 3.649-1.254 3.694-2.031.321-5.565.172-11.157.172-17.186h-22.138c1.17-7.421.955-14.741 3.627-20.783 3.286-7.429 11.658-5.081 18.569-5.128 0-4.339-.401-8.036.092-11.609.778-5.646-1.61-8.028-7.868-8.212M680.417 196.42c.52 1.751 1.473 3.497 1.49 5.253l.107 40.461c.114 11.534 5.72 20.021 15.729 23.787 7.057 2.655 14.382 2.604 21.627.827 1.252-.307 3-1.976 3.075-3.111.334-5.076.145-10.187.145-15.492-2.275 0-3.759-.051-5.239.008-10.615.426-13.559-2.294-13.607-12.798l.003-33.469c.005-1.752.232-3.504.383-5.616 5.355 0 10.181.165 14.98-.116 1.203-.07 3.27-1.521 3.323-2.431.315-5.431.156-10.889.156-16.892-5.286 0-9.919-.152-14.535.052-3.224.142-4.456-.968-4.371-4.266.177-6.822.18-13.658-.075-20.475-.05-1.336-1.522-3.688-2.454-3.747-5.578-.355-11.19-.176-17.246-.176 0 5.347.163 9.991-.035 14.62-.385 9.033-5.166 13.657-14.126 14.007-1.428.056-2.849.278-4.762.473 0 4.852.18 9.325-.055 13.776-.199 3.776.964 5.581 5.029 5.246 3.141-.259 6.323-.026 10.46.078m207.456-15.1l-7.332 6.838L880.03 177h-8.22c-12.906 0-12.906 0-12.906 13.074l-.076 71.491c-.025 3.927 1.153 5.425 5.111 5.128 3.646-.274 7.362-.372 10.986.019 4.839.523 5.813-1.582 5.754-5.974-.178-13.327-.248-26.669.214-39.986.499-14.386 8.711-22.403 22.52-22.845 1.663-.053 3.357-.122 4.99.124 2.962.446 3.864-.897 3.815-3.621-.087-4.831-.116-9.667.005-14.497.078-3.109-1.422-3.953-4.279-4.027-7.003-.182-13.596.971-20.072 5.433M750.74 266.642h14.871v-89.239h-21.177c-.089 1.87-.219 3.345-.219 4.821L744.1 261.2c-.037 4.551 1.451 6.089 6.64 5.443m17.835-117.652c1.777-5.988.403-11.275-4.071-15.494-3.93-3.706-8.785-4.511-13.909-2.864-6.423 2.065-10.147 8.041-9.624 15.144.467 6.343 5.135 11.64 11.34 12.868 6.763 1.338 12.365-1.798 16.264-9.654m362.023-.251c-7.46 3.212-11.229 9.361-10.041 16.381 1.271 7.51 6.64 12.636 13.681 12.894 6.019.221 10.715-2.316 13.58-7.582 2.935-5.395 2.77-11.004-.77-16.052-3.785-5.398-9.152-7.435-16.451-5.641z"/><path fill="#1ed55f" d="M211.131 218.716l-.294 6.071-5.05-1.248c-18.788-4.838-41.821 3.818-51.486 19.352-10.367 16.662-4.046 35.876 14.379 43.004 4.607 1.783 9.582 2.615 14.756 3.981-1.123.78-2.223 1.66-3.427 2.361l-95.87 55.818c-23.992 13.898-48.991-.528-49.14-28.252l-.002-7.759c4.915 1.216 9.333 2.817 13.875 3.344 18.755 2.177 34.435-3.642 46.269-18.733 4.285-5.464 6.014-11.711 6.002-18.633l-.133-111.956c-.023-4.57 1.197-6.735 5.755-8.071 30.141-8.832 60.833-14.702 92.06-17.879l12.308-1.114v79.714z"/><path fill="#1ed660" d="M39.204 47.373c10.476-15.28 27.514-19.827 43.066-11.05l65.258 37.907c.652.38 1.178.976 2.496 2.092-4.264 1.047-7.789 1.749-11.214 2.782L86.746 94.915c-4.263 1.269-5.423 3.711-5.418 8.027l-.193 140.966-.001 6.283c-8.42-.213-16.262-1.336-23.823-.338-7.408.978-14.531 4.116-22.095 6.401-.058-1.267-.207-3.012-.208-4.758l.167-184.955c.03-6.285 2.515-12.558 4.029-19.168z"/><path fill="#1ed55f" d="M299.005 222.981l-67.526 39.305V123.542l5.58 2.803 63.092 36.627c11.081 6.327 17.446 16.074 18.156 28.21.678 11.594-4.534 21.655-14.314 28.731-1.48 1.07-3.11 1.932-4.988 3.07z"/><path fill="#1ed45f" d="M391.093 248.366c5.052-.641 9.853-.652 14.159-2.118 6.837-2.328 10.972-7.437 11.172-14.99.195-7.336-3.412-12.928-10.022-15.207-8.762-3.022-17.951-4.84-27.003-6.975-7.743-1.826-14.968-4.661-20.885-10.111-13.834-12.743-15.629-33.139-4.367-48.488 16.813-22.915 55.155-25.192 74.087-4.011 3.87 4.33 6.045 10.208 8.822 15.466 1.349 2.554.613 4.301-2.471 5.135-5.426 1.468-10.768 3.244-16.385 4.965-.523-1.247-.937-2.098-1.245-2.986-5.238-15.102-24.269-21.934-37.948-13.614-7.047 4.286-10.316 10.764-9.076 18.505 1.225 7.648 6.674 11.296 13.509 13.011 7.747 1.944 15.658 3.225 23.431 5.076 11.75 2.799 21.833 8.318 28.055 19.156 9.1 15.851 4.625 36.192-10.333 47.966-20.688 16.284-57.667 12.325-73.709-8.5-4.028-5.229-5.97-12.108-8.615-18.337-1.1-2.591.049-4.312 2.992-5.044 5.622-1.399 11.174-3.08 17.088-4.738 3.342 15.711 12.002 25.057 28.743 25.838z"/><path fill="#1ed55f" d="M462.127 177.005h14.845l.883 8.704c5.139-3.068 9.576-6.867 14.71-8.583 21.799-7.284 46.611 1.202 53.414 28.08 4.984 19.69 2.917 38.144-12.335 53.229-13.637 13.488-37.817 14.173-52.56 1.752-.596-.502-1.308-.866-2.905-1.905v6.997l.05 32.497c.042 3.18-.884 4.499-4.237 4.364-5.466-.22-10.947-.059-16.87-.059V177.308l5.005-.303m57.702 24.692c-11-10.519-27.036-10.14-35.706.844-8.216 10.409-8.078 28.471.295 38.76 10.275 12.626 31.509 10.341 38.545-4.475 5.618-11.83 4.975-23.566-3.135-35.129z"/><path d="M939.637 183.612c15.818-12.829 41.258-10.537 53.645-1.096 13.893 10.589 17.378 25.291 16.813 41.662-.123 3.564-2.826 3.089-5.103 3.092l-54.447.017h-5.852c-1.591 8.272 4.736 17.335 14.337 21.05 12.74 4.929 23.904.401 32.378-13.494l17.165 5.37c-2.268 12.91-15.031 24.708-29.51 27.686-22.329 4.592-43.032-4.881-52.369-24.321-8.635-17.98-6.942-44.412 12.943-59.966m37.838 27.788h10.294c.102-11.554-9.07-18.703-22.563-18.394-11.177.256-20.514 8.532-19.983 18.394h32.252zm133.352-4.036l1.293 14.82c.388 3.936-1.293 5.198-5.185 5.166l-54.992-.063h-5.35c-1.43 8.365 4.573 17.075 14.015 20.888 12.675 5.118 23.501.832 32.807-13.247l14.587 4.393c.916.284 1.74.865 2.553 1.282-3.281 14.721-17.728 26.401-34.657 28.198-22.644 2.404-42.771-9.711-49.413-30.52-7.063-22.126-.832-44.947 19.145-57.453 25.018-15.662 56.915-2.875 65.197 26.537m-33.098-12.917c-16.483-4.42-31.414 3.585-30.61 16.575h43.129c-.917-8.067-4.742-13.31-12.519-16.575zm-492.635 68.518c-17.385-10.672-26.154-29.975-22.647-49.312 3.772-20.794 16.709-34.515 37.581-38.108 18.28-3.147 34.752 1.384 46.312 16.713 11.974 15.879 13.063 33.644 4.608 51.384-8.171 17.141-22.863 24.801-41.54 25.283-8.504.219-16.495-1.772-24.314-5.96m3.919-23.576c9.491 13.545 31.387 13.172 40.24-.358 5.748-8.784 6.341-18.421 3.134-28.237-3.223-9.863-10.461-15.351-20.538-16.467-10.25-1.135-18.945 2.517-24.058 11.74-6.013 10.846-5.535 21.96 1.222 33.322z" fill="#1ed45f"/><path d="M834.605 131.084c5.807.154 8.196 2.537 7.417 8.182-.493 3.574-.092 7.27-.092 11.609-6.912.047-15.284-2.301-18.569 5.128-2.673 6.043-2.457 13.363-3.627 20.783h22.138c0 6.03.15 11.622-.172 17.186-.045.778-2.379 1.976-3.694 2.031-5.457.23-10.928.097-16.901.097-.143 2.375-.357 4.299-.359 6.224l.059 58.981c.035 4.08-1.124 5.671-5.353 5.411-5.261-.323-10.557-.078-16.317-.078v-7.656l.073-57.481c.034-3.955-.839-5.579-5.211-5.495-10.905.208-10.909-.008-10.909-11.019v-7.994c4.287 0 8.078-.18 11.843.054 3.342.208 4.445-1.13 4.242-4.335-.2-3.153-.044-6.329-.038-9.494.033-19.926 12.226-32.179 32.022-32.182l3.449.047zM679.93 196.375l-9.973-.034c-4.064.335-5.228-1.47-5.029-5.246.235-4.451.055-8.924.055-13.776 1.913-.195 3.334-.417 4.762-.473 8.961-.35 13.741-4.974 14.126-14.007.197-4.629.035-9.273.035-14.62 6.056 0 11.668-.179 17.246.176.932.059 2.404 2.411 2.454 3.747.255 6.818.253 13.653.075 20.475-.086 3.298 1.147 4.409 4.371 4.266 4.617-.204 9.249-.052 14.535-.052 0 6.003.159 11.461-.156 16.892-.053.91-2.12 2.36-3.323 2.431-4.8.281-9.626.116-14.98.116-.15 2.112-.378 3.864-.383 5.616l-.003 33.469c.048 10.504 2.992 13.224 13.607 12.798 1.479-.059 2.964-.008 5.239-.008 0 5.305.189 10.416-.145 15.492-.075 1.135-1.823 2.804-3.075 3.111-7.245 1.776-14.57 1.828-21.627-.827-10.009-3.766-15.615-12.253-15.729-23.787l-.107-40.461c-.017-1.756-.97-3.502-1.977-5.298z" fill="#1ed35f"/><path fill="#1ed45f" d="M888.171 181.114c6.179-4.255 12.771-5.409 19.774-5.227 2.857.074 4.357.919 4.279 4.027-.121 4.83-.092 9.666-.005 14.497.049 2.724-.854 4.067-3.815 3.621-1.633-.246-3.327-.177-4.99-.124-13.81.442-22.021 8.458-22.52 22.845-.462 13.316-.392 26.659-.214 39.986.059 4.392-.916 6.497-5.754 5.974-3.624-.392-7.34-.293-10.986-.019-3.958.297-5.136-1.201-5.111-5.128l.076-71.491c0-13.074 0-13.074 12.906-13.074h8.22l.511 11.158 7.629-7.044z"/><path fill="#1ed25f" d="M750.274 266.642c-4.723.647-6.212-.891-6.174-5.442l.114-78.976.219-4.821h21.177v89.239c-5.001 0-9.936 0-15.336 0z"/><path fill="#1ed45f" d="M768.439 149.341c-3.763 7.505-9.365 10.64-16.128 9.302-6.204-1.227-10.872-6.525-11.34-12.868-.523-7.103 3.201-13.079 9.624-15.144 5.124-1.647 9.979-.842 13.909 2.864 4.473 4.219 5.847 9.506 3.935 15.846z"/><path fill="#1ec55a" d="M1130.973 148.583c6.923-1.637 12.29.399 16.076 5.797 3.54 5.048 3.705 10.657.77 16.052-2.865 5.266-7.561 7.803-13.58 7.582-7.041-.258-12.411-5.384-13.681-12.894-1.188-7.019 2.581-13.168 10.416-16.537m2.851 26.286c1.156-.047 2.354.085 3.462-.169 5.885-1.353 9.697-7.463 8.687-13.779-.925-5.781-5.806-9.972-11.376-9.769-5.685.208-10.346 5.039-10.693 11.083-.341 5.948 2.627 10.031 9.92 12.634z"/><path fill="url(#A)" d="M520.051 201.982c7.888 11.278 8.53 23.013 2.912 34.844-7.036 14.816-28.27 17.101-38.545 4.475-8.373-10.289-8.511-28.351-.295-38.76 8.669-10.984 24.706-11.363 35.928-.559z"/><path d="M976.978 211.401h-31.755c-.531-9.862 8.806-18.138 19.983-18.394 13.493-.309 22.665 6.84 22.563 18.394h-10.791zm101.115-16.802c7.413 3.114 11.238 8.356 12.155 16.423h-43.129c-.803-12.99 14.127-20.995 30.974-16.423z" fill="url(#A)"/><path fill="url(#A)" d="M588.811 239.085c-6.555-11.058-7.033-22.172-1.02-33.018 5.113-9.223 13.807-12.874 24.058-11.74 10.076 1.115 17.315 6.603 20.538 16.467 3.207 9.816 2.614 19.454-3.134 28.237-8.853 13.53-30.749 13.903-40.442.053z"/><path fill="url(#A)" d="M1133.429 174.83c-6.898-2.564-9.866-6.647-9.525-12.595.347-6.044 5.008-10.875 10.693-11.083 5.57-.203 10.451 3.988 11.376 9.769 1.01 6.316-2.801 12.427-8.687 13.779-1.109.255-2.306.123-3.857.131m6.731-13.937c3.073-1.495 1.029-3.611-.213-3.928-2.808-.718-6.216-1.456-8.708-.477-3.561 1.4-4.429 5.178-3.527 8.937.867 3.613 3.236 5.786 6.996 6.05 3.466.243 5.975-1.159 7.693-5.925-2.428.847-3.784 1.258-5.091 1.788-3.441 1.397-6.449-.86-6.047-4.573.446-4.117 3.654-4.843 8.896-1.873z"/><path fill="#1dc159" d="M1139.788 160.907c-4.871-2.984-8.078-2.258-8.524 1.859-.402 3.713 2.605 5.97 6.047 4.573l5.091-1.788c-1.718 4.765-4.227 6.168-7.693 5.925-3.76-.264-6.129-2.436-6.996-6.05-.902-3.759-.034-7.537 3.527-8.937 2.492-.98 5.9-.242 8.708.477 1.242.318 3.286 2.433-.159 3.942z"/></svg>